<?xml version="1.0" encoding="UTF-8"?>
<svg width="2400px" height="1350px" viewBox="0 0 2400 1350" version="1.1" xmlns="http://www.w3.org/2000/svg" xmlns:xlink="http://www.w3.org/1999/xlink">
    <!-- Generator: Sketch 52.2 (67145) - http://www.bohemiancoding.com/sketch -->
    <title>Artboard</title>
    <desc>Created with Sketch.</desc>
    <g id="Artboard" stroke="none" stroke-width="1" fill="none" fill-rule="evenodd">
        <rect fill="#1A1A1A" x="0" y="0" width="2400" height="1350"></rect>
        <g id="logo" transform="translate(765.468750, 578.437500)" fill="#D8D8D8">
            <path d="M95.1291341,0 C43.4378344,0 1.53375651,41.8814881 1.53375651,93.5449219 C1.53375651,145.208356 43.4378344,187.089844 95.1291341,187.089844 C146.820434,187.089844 188.724512,145.208356 188.724512,93.5449219 C188.724512,68.7352661 178.863598,44.9417491 161.31106,27.3986733 C143.758522,9.8555974 119.952172,0 95.1291341,0 Z M95.1291341,164.15625 C66.5541135,164.15625 40.7927734,146.952352 29.8575865,120.566707 C18.9223995,94.1810623 24.9668635,63.8098713 45.1724543,43.6151729 C65.3780452,23.4204746 95.7656177,17.3792691 122.165494,28.3085611 C148.565371,39.237853 165.778548,64.9853056 165.778548,93.5449219 C165.778548,132.542482 134.147728,164.15625 95.1291341,164.15625 Z" id="Shape"></path>
            <path d="M682.340496,93.5569922 C682.340496,145.220426 724.244573,187.101914 775.935873,187.101914 L869.531251,187.101914 L869.531251,164.16832 L775.935873,164.16832 C741.474275,164.149862 712.061376,139.267985 706.34922,105.301406 L799.763445,105.301406 L799.763445,82.3678125 L706.258643,82.3678125 C711.725197,48.1429549 741.252932,22.953808 775.929835,22.9335937 L869.525212,22.9335937 L869.525212,0 L775.929835,0 C751.105751,0.00160048388 727.299121,9.8595614 709.747542,27.4050744 C692.195963,44.9505875 682.337292,68.7462907 682.340496,93.5569922 Z" id="Path"></path>
            <path d="M249.446777,93.5449219 C249.446777,54.5473622 281.077597,22.9335937 320.096191,22.9335937 C359.114785,22.9335937 390.745605,54.5473622 390.745605,93.5449219 L390.745605,187.089844 L413.691569,187.089844 L413.691569,93.5449219 C413.691569,41.8814881 371.787491,0 320.096191,0 C268.404892,0 226.500814,41.8814881 226.500814,93.5449219 L226.500814,187.089844 L249.446777,187.089844 L249.446777,93.5449219 Z" id="Path"></path>
            <path d="M458.919271,93.5449219 C458.919271,145.208356 500.823349,187.089844 552.514648,187.089844 L646.110026,187.089844 L646.110026,164.15625 L552.514648,164.15625 C513.496054,164.15625 481.865234,132.542482 481.865234,93.5449219 C481.865234,54.5473622 513.496054,22.9335937 552.514648,22.9335937 L646.110026,22.9335937 L646.110026,0 L552.514648,0 C500.823349,-4.28823643e-14 458.919271,41.8814881 458.919271,93.5449219 Z" id="Path"></path>
        </g>
        <text id="PLAY-SHOWREEL" font-family="Lato-Bold, Lato" font-size="26" font-weight="bold" letter-spacing="5" fill="#FFFFFF">
            <tspan x="1065" y="846">PLAY SHOWREE</tspan>
            <tspan x="1321.222" y="846">L</tspan>
        </text>
    </g>
</svg>