<?xml version="1.0" encoding="UTF-8"?>
<svg width="2400px" height="1350px" viewBox="0 0 2400 1350" version="1.1" xmlns="http://www.w3.org/2000/svg" xmlns:xlink="http://www.w3.org/1999/xlink">
    <!-- Generator: Sketch 52.2 (67145) - http://www.bohemiancoding.com/sketch -->
    <title>Artboard</title>
    <desc>Created with Sketch.</desc>
    <g id="Artboard" stroke="none" stroke-width="1" fill="none" fill-rule="evenodd">
        <rect fill="#1A1A1A" x="0" y="0" width="2400" height="1350"></rect>
        <g id="logo" transform="translate(765.468750, 578.437500)" fill="#D8D8D8">
            <path d="M95.1291341,0 C43.4378344,0 1.53375651,41.8814881 1.53375651,93.5449219 C1.53375651,145.208356 43.4378344,187.089844 95.1291341,187.089844 C146.820434,187.089844 188.724512,145.208356 188.724512,93.5449219 C188.724512,68.7352661 178.863598,44.9417491 161.31106,27.3986733 C143.758522,9.8555974 119.952172,0 95.1291341,0 Z M95.1291341,164.15625 C66.5541135,164.15625 40.7927734,146.952352 29.8575865,120.566707 C18.9223995,94.1810623 24.9668635,63.8098713 45.1724543,43.6151729 C65.3780452,23.4204746 95.7656177,17.3792691 122.165494,28.3085611 C148.565371,39.237853 165.778548,64.9853056 165.778548,93.5449219 C165.778548,132.542482 134.147728,164.15625 95.1291341,164.15625 Z" id="Shape"></path>
            <path d="M682.340496,93.5569922 C682.340496,145.220426 724.244573,187.101914 775.935873,187.101914 L869.531251,187.101914 L869.531251,164.16832 L775.935873,164.16832 C741.474275,164.149862 712.061376,139.267985 706.34922,105.301406 L799.763445,105.301406 L799.763445,82.3678125 L706.258643,82.3678125 C711.725197,48.1429549 741.252932,22.953808 775.929835,22.9335937 L869.525212,22.9335937 L869.525212,0 L775.929835,0 C751.105751,0.00160048388 727.299121,9.8595614 709.747542,27.4050744 C692.195963,44.9505875 682.337292,68.7462907 682.340496,93.5569922 Z" id="Path"></path>
            <path d="M249.446777,93.5449219 C249.446777,54.5473622 281.077597,22.9335937 320.096191,22.9335937 C359.114785,22.9335937 390.745605,54.5473622 390.745605,93.5449219 L390.745605,187.089844 L413.691569,187.089844 L413.691569,93.5449219 C413.691569,41.8814881 371.787491,0 320.096191,0 C268.404892,0 226.500814,41.8814881 226.500814,93.5449219 L226.500814,187.089844 L249.446777,187.089844 L249.446777,93.5449219 Z" id="Path"></path>
            <path d="M458.919271,93.5449219 C458.919271,145.208356 500.823349,187.089844 552.514648,187.089844 L646.110026,187.089844 L646.110026,164.15625 L552.514648,164.15625 C513.496054,164.15625 481.865234,132.542482 481.865234,93.5449219 C481.865234,54.5473622 513.496054,22.9335937 552.514648,22.9335937 L646.110026,22.9335937 L646.110026,0 L552.514648,0 C500.823349,-4.28823643e-14 458.919271,41.8814881 458.919271,93.5449219 Z" id="Path"></path>
        </g>
        <path d="M1070.512,839.383 L1070.512,846 L1067.015,846 L1067.015,827.202 L1073.138,827.202 C1074.39467,827.202 1075.48233,827.349332 1076.401,827.644 C1077.31967,827.938668 1078.078,828.350331 1078.676,828.879 C1079.274,829.407669 1079.716,830.04033 1080.002,830.777 C1080.288,831.51367 1080.431,832.319662 1080.431,833.195 C1080.431,834.105005 1080.27933,834.939163 1079.976,835.6975 C1079.67267,836.455837 1079.21767,837.107997 1078.611,837.654 C1078.00433,838.200003 1077.246,838.624665 1076.336,838.928 C1075.426,839.231335 1074.36001,839.383 1073.138,839.383 L1070.512,839.383 Z M1070.512,836.653 L1073.138,836.653 C1073.77934,836.653 1074.33833,836.572834 1074.815,836.4125 C1075.29167,836.252166 1075.686,836.022501 1075.998,835.7235 C1076.31,835.424499 1076.544,835.060502 1076.7,834.6315 C1076.856,834.202498 1076.934,833.723669 1076.934,833.195 C1076.934,832.692331 1076.856,832.237335 1076.7,831.83 C1076.544,831.422665 1076.31,831.076001 1075.998,830.79 C1075.686,830.503999 1075.29167,830.285167 1074.815,830.1335 C1074.33833,829.981833 1073.77934,829.906 1073.138,829.906 L1070.512,829.906 L1070.512,836.653 Z M1091.645,843.114 L1099.172,843.114 L1099.172,846 L1088.148,846 L1088.148,827.202 L1091.645,827.202 L1091.645,843.114 Z M1123.113,846 L1120.409,846 C1120.10567,846 1119.8565,845.924167 1119.6615,845.7725 C1119.4665,845.620833 1119.32567,845.432334 1119.239,845.207 L1117.835,841.372 L1110.048,841.372 L1108.644,845.207 C1108.57467,845.406334 1108.43817,845.588333 1108.2345,845.753 C1108.03083,845.917667 1107.78167,846 1107.487,846 L1104.77,846 L1112.154,827.202 L1115.729,827.202 L1123.113,846 Z M1110.945,838.902 L1116.938,838.902 L1114.65,832.649 C1114.546,832.371665 1114.43117,832.044502 1114.3055,831.6675 C1114.17983,831.290498 1114.05633,830.881002 1113.935,830.439 C1113.81367,830.881002 1113.6945,831.292665 1113.5775,831.674 C1113.4605,832.055335 1113.34567,832.388999 1113.233,832.675 L1110.945,838.902 Z M1136.043,838.694 L1136.043,846 L1132.546,846 L1132.546,838.694 L1125.695,827.202 L1128.776,827.202 C1129.07933,827.202 1129.31983,827.275666 1129.4975,827.423 C1129.67517,827.570334 1129.82467,827.756666 1129.946,827.982 L1133.391,834.261 C1133.59033,834.633669 1133.76367,834.986832 1133.911,835.3205 C1134.05833,835.654168 1134.19267,835.981332 1134.314,836.302 C1134.42667,835.972665 1134.5545,835.641168 1134.6975,835.3075 C1134.8405,834.973832 1135.01167,834.625002 1135.211,834.261 L1138.63,827.982 C1138.72533,827.791332 1138.86833,827.613667 1139.059,827.449 C1139.24967,827.284333 1139.49233,827.202 1139.787,827.202 L1142.881,827.202 L1136.043,838.694 Z M1169.794,830.621 C1169.69867,830.811668 1169.58817,830.946 1169.4625,831.024 C1169.33683,831.102 1169.18733,831.141 1169.014,831.141 C1168.84067,831.141 1168.64567,831.073834 1168.429,830.9395 C1168.21233,830.805166 1167.95667,830.655667 1167.662,830.491 C1167.36733,830.326333 1167.02284,830.176834 1166.6285,830.0425 C1166.23416,829.908166 1165.76834,829.841 1165.231,829.841 C1164.74566,829.841 1164.32317,829.899499 1163.9635,830.0165 C1163.60383,830.133501 1163.3005,830.295999 1163.0535,830.504 C1162.8065,830.712001 1162.62233,830.961165 1162.501,831.2515 C1162.37967,831.541835 1162.319,831.860332 1162.319,832.207 C1162.319,832.649002 1162.4425,833.017332 1162.6895,833.312 C1162.9365,833.606668 1163.26366,833.857999 1163.671,834.066 C1164.07834,834.274001 1164.542,834.460333 1165.062,834.625 C1165.582,834.789667 1166.11283,834.965166 1166.6545,835.1515 C1167.19617,835.337834 1167.727,835.554499 1168.247,835.8015 C1168.767,836.048501 1169.23066,836.360498 1169.638,836.7375 C1170.04534,837.114502 1170.3725,837.575997 1170.6195,838.122 C1170.8665,838.668003 1170.99,839.330996 1170.99,840.111 C1170.99,840.960338 1170.84483,841.755496 1170.5545,842.4965 C1170.26417,843.237504 1169.8395,843.883164 1169.2805,844.4335 C1168.7215,844.983836 1168.039,845.417165 1167.233,845.7335 C1166.427,846.049835 1165.50401,846.208 1164.464,846.208 C1163.866,846.208 1163.27667,846.149501 1162.696,846.0325 C1162.11533,845.915499 1161.5585,845.748668 1161.0255,845.532 C1160.4925,845.315332 1159.99417,845.055335 1159.5305,844.752 C1159.06683,844.448665 1158.653,844.110669 1158.289,843.738 L1159.303,842.061 C1159.39833,841.939666 1159.51317,841.837834 1159.6475,841.7555 C1159.78183,841.673166 1159.93133,841.632 1160.096,841.632 C1160.31267,841.632 1160.54667,841.720832 1160.798,841.8985 C1161.04933,842.076168 1161.34616,842.273332 1161.6885,842.49 C1162.03084,842.706668 1162.43383,842.903832 1162.8975,843.0815 C1163.36117,843.259168 1163.918,843.348 1164.568,843.348 C1165.56467,843.348 1166.336,843.111836 1166.882,842.6395 C1167.428,842.167164 1167.701,841.489004 1167.701,840.605 C1167.701,840.110998 1167.5775,839.708002 1167.3305,839.396 C1167.0835,839.083998 1166.75634,838.821834 1166.349,838.6095 C1165.94166,838.397166 1165.478,838.217334 1164.958,838.07 C1164.438,837.922666 1163.90934,837.762334 1163.372,837.589 C1162.83466,837.415666 1162.306,837.207668 1161.786,836.965 C1161.266,836.722332 1160.80234,836.406002 1160.395,836.016 C1159.98766,835.625998 1159.6605,835.138503 1159.4135,834.5535 C1159.1665,833.968497 1159.043,833.247004 1159.043,832.389 C1159.043,831.70433 1159.1795,831.037003 1159.4525,830.387 C1159.7255,829.736997 1160.12416,829.160669 1160.6485,828.658 C1161.17284,828.155331 1161.81633,827.752335 1162.579,827.449 C1163.34167,827.145665 1164.21266,826.994 1165.192,826.994 C1166.30134,826.994 1167.324,827.167332 1168.26,827.514 C1169.196,827.860668 1169.99333,828.345997 1170.652,828.97 L1169.794,830.621 Z M1194.528,846 L1191.005,846 L1191.005,837.784 L1182.191,837.784 L1182.191,846 L1178.668,846 L1178.668,827.202 L1182.191,827.202 L1182.191,835.288 L1191.005,835.288 L1191.005,827.202 L1194.528,827.202 L1194.528,846 Z M1221.355,836.601 C1221.355,837.979007 1221.12534,839.255161 1220.666,840.4295 C1220.20666,841.603839 1219.561,842.619996 1218.729,843.478 C1217.897,844.336004 1216.89601,845.005498 1215.726,845.4865 C1214.55599,845.967502 1213.26034,846.208 1211.839,846.208 C1210.41766,846.208 1209.11984,845.967502 1207.9455,845.4865 C1206.77116,845.005498 1205.76584,844.336004 1204.9295,843.478 C1204.09316,842.619996 1203.44534,841.603839 1202.986,840.4295 C1202.52666,839.255161 1202.297,837.979007 1202.297,836.601 C1202.297,835.222993 1202.52666,833.946839 1202.986,832.7725 C1203.44534,831.598161 1204.09316,830.582004 1204.9295,829.724 C1205.76584,828.865996 1206.77116,828.196502 1207.9455,827.7155 C1209.11984,827.234498 1210.41766,826.994 1211.839,826.994 C1213.26034,826.994 1214.55599,827.236664 1215.726,827.722 C1216.89601,828.207336 1217.897,828.876829 1218.729,829.7305 C1219.561,830.584171 1220.20666,831.598161 1220.666,832.7725 C1221.12534,833.946839 1221.355,835.222993 1221.355,836.601 Z M1217.767,836.601 C1217.767,835.569662 1217.6305,834.644504 1217.3575,833.8255 C1217.0845,833.006496 1216.69234,832.311003 1216.181,831.739 C1215.66966,831.166997 1215.04784,830.729335 1214.3155,830.426 C1213.58316,830.122665 1212.75767,829.971 1211.839,829.971 C1210.92033,829.971 1210.09267,830.122665 1209.356,830.426 C1208.61933,830.729335 1207.99317,831.166997 1207.4775,831.739 C1206.96183,832.311003 1206.56533,833.006496 1206.288,833.8255 C1206.01067,834.644504 1205.872,835.569662 1205.872,836.601 C1205.872,837.632338 1206.01067,838.557496 1206.288,839.3765 C1206.56533,840.195504 1206.96183,840.88883 1207.4775,841.4565 C1207.99317,842.02417 1208.61933,842.459665 1209.356,842.763 C1210.09267,843.066335 1210.92033,843.218 1211.839,843.218 C1212.75767,843.218 1213.58316,843.066335 1214.3155,842.763 C1215.04784,842.459665 1215.66966,842.02417 1216.181,841.4565 C1216.69234,840.88883 1217.0845,840.195504 1217.3575,839.3765 C1217.6305,838.557496 1217.767,837.632338 1217.767,836.601 Z M1227.369,827.202 L1230.307,827.202 C1230.61033,827.202 1230.86383,827.273499 1231.0675,827.4165 C1231.27117,827.559501 1231.40767,827.752332 1231.477,827.995 L1234.675,839.24 C1234.753,839.517335 1234.8245,839.818498 1234.8895,840.1435 C1234.9545,840.468502 1235.01733,840.812998 1235.078,841.177 C1235.14733,840.812998 1235.22317,840.468502 1235.3055,840.1435 C1235.38783,839.818498 1235.47667,839.517335 1235.572,839.24 L1239.264,827.995 C1239.33333,827.795666 1239.46983,827.613667 1239.6735,827.449 C1239.87717,827.284333 1240.12633,827.202 1240.421,827.202 L1241.448,827.202 C1241.75133,827.202 1242.00267,827.273499 1242.202,827.4165 C1242.40133,827.559501 1242.54,827.752332 1242.618,827.995 L1246.284,839.24 C1246.47467,839.794669 1246.63933,840.409997 1246.778,841.086 C1246.83867,840.747998 1246.9015,840.423002 1246.9665,840.111 C1247.0315,839.798998 1247.09867,839.508668 1247.168,839.24 L1250.366,827.995 C1250.42667,827.778332 1250.561,827.592001 1250.769,827.436 C1250.977,827.279999 1251.22833,827.202 1251.523,827.202 L1254.266,827.202 L1248.429,846 L1245.27,846 L1241.162,833.156 C1241.11,832.991333 1241.05583,832.813668 1240.9995,832.623 C1240.94317,832.432332 1240.889,832.228668 1240.837,832.012 C1240.785,832.228668 1240.73083,832.432332 1240.6745,832.623 C1240.61817,832.813668 1240.564,832.991333 1240.512,833.156 L1236.365,846 L1233.206,846 L1227.369,827.202 Z M1264.934,838.655 L1264.934,846 L1261.437,846 L1261.437,827.202 L1267.17,827.202 C1268.45267,827.202 1269.55116,827.334165 1270.4655,827.5985 C1271.37984,827.862835 1272.1295,828.233331 1272.7145,828.71 C1273.2995,829.186669 1273.7285,829.756497 1274.0015,830.4195 C1274.2745,831.082503 1274.411,831.812663 1274.411,832.61 C1274.411,833.24267 1274.31783,833.840664 1274.1315,834.404 C1273.94517,834.967336 1273.6765,835.478664 1273.3255,835.938 C1272.9745,836.397336 1272.54117,836.800332 1272.0255,837.147 C1271.50983,837.493668 1270.92267,837.770999 1270.264,837.979 C1270.706,838.230335 1271.08733,838.589998 1271.408,839.058 L1276.114,846 L1272.968,846 C1272.66467,846 1272.40683,845.939334 1272.1945,845.818 C1271.98217,845.696666 1271.80233,845.523334 1271.655,845.298 L1267.703,839.279 C1267.55567,839.053666 1267.39317,838.893334 1267.2155,838.798 C1267.03783,838.702666 1266.77567,838.655 1266.429,838.655 L1264.934,838.655 Z M1264.934,836.146 L1267.118,836.146 C1267.77667,836.146 1268.35083,836.063667 1268.8405,835.899 C1269.33017,835.734333 1269.73317,835.506835 1270.0495,835.2165 C1270.36583,834.926165 1270.602,834.581669 1270.758,834.183 C1270.914,833.784331 1270.992,833.346669 1270.992,832.87 C1270.992,831.916662 1270.67784,831.184336 1270.0495,830.673 C1269.42116,830.161664 1268.46134,829.906 1267.17,829.906 L1264.934,829.906 L1264.934,836.146 Z M1295.206,827.202 L1295.206,829.984 L1286.873,829.984 L1286.873,835.197 L1293.438,835.197 L1293.438,837.888 L1286.873,837.888 L1286.873,843.205 L1295.206,843.205 L1295.206,846 L1283.35,846 L1283.35,827.202 L1295.206,827.202 Z M1315.091,827.202 L1315.091,829.984 L1306.758,829.984 L1306.758,835.197 L1313.323,835.197 L1313.323,837.888 L1306.758,837.888 L1306.758,843.205 L1315.091,843.205 L1315.091,846 L1303.235,846 L1303.235,827.202 L1315.091,827.202 Z M1326.617,843.114 L1334.144,843.114 L1334.144,846 L1323.12,846 L1323.12,827.202 L1326.617,827.202 L1326.617,843.114 Z" id="PLAY-SHOWREEL" fill="#FFFFFF"></path>
    </g>
</svg>