<svg id="Layer_1" data-name="Layer 1" xmlns="http://www.w3.org/2000/svg" viewBox="0 0 204.509 102.254">
  <defs>
    <style>
      .cls-1 {
        fill: none;
      }

      .cls-2 {
        fill: #fff;
      }
    </style>
  </defs>
  <title>14faec4f-2654-4fe5-9c64-dc2d5d475a0f</title>
  <g>
    <path class="cls-1" d="M134.754,17a15.5,15.5,0,1,0,15.5,15.5A15.5,15.5,0,0,0,134.754,17Zm0,27.2a11.7,11.7,0,1,1,11.7-11.7A11.7,11.7,0,0,1,134.754,44.2Z"/>
    <path class="cls-1" d="M156.509,69.754a15.5,15.5,0,0,0,15.5,15.5h15.5v-3.8h-15.5A11.692,11.692,0,0,1,160.485,71.7h15.47V67.9H160.47a11.691,11.691,0,0,1,11.538-9.848h15.5v-3.8h-15.5A15.5,15.5,0,0,0,156.509,69.754Z"/>
    <path class="cls-1" d="M160.31,32.5a11.7,11.7,0,0,1,23.4,0V48h3.8V32.5a15.5,15.5,0,0,0-31,0V48h3.8Z"/>
    <path class="cls-1" d="M119.254,69.754a15.5,15.5,0,0,0,15.5,15.5h15.5v-3.8h-15.5a11.7,11.7,0,1,1,0-23.4h15.5v-3.8h-15.5A15.5,15.5,0,0,0,119.254,69.754Z"/>
    <circle class="cls-2" cx="134.754" cy="32.5" r="11.699"/>
    <path class="cls-2" d="M102.254,0H0V102.254H204.509V0Zm48,58.056h-15.5a11.7,11.7,0,1,0,0,23.4h15.5v3.8h-15.5a15.5,15.5,0,1,1,0-31h15.5ZM134.754,48a15.5,15.5,0,1,1,15.5-15.5A15.5,15.5,0,0,1,134.754,48Zm21.754-15.5a15.5,15.5,0,0,1,31,0V48h-3.8V32.5a11.7,11.7,0,0,0-23.4,0V48h-3.8Zm31,25.556h-15.5A11.691,11.691,0,0,0,160.47,67.9h15.485v3.8h-15.47a11.692,11.692,0,0,0,11.523,9.748h15.5v3.8h-15.5a15.5,15.5,0,0,1,0-31h15.5Z"/>
  </g>
</svg>
